# xmcd
#
# Track frame offsets:
#	150
#	18795
#	40330
#	66998
#	78984
#	94385
#	119482
#	135994
#	150194
#	165358
#	176852
#
# Disc length: 2611
#
# Revision: 2
# Processed by: cddbd v1.5.1PL0 Copyright (c) Steve Scherf et al.
# Submitted via: EasyCDDAExtractor 5.0.7
# Normalized: r1:DSETVAR1
#
DISCID=820a310b
DTITLE=Various Artist - The Legend
DYEAR=1900
DGENRE=Blues
TTITLE0=Positively 4th Street
TTITLE1=Just Like A Woman
TTITLE2=Like A Rolling Stone
TTITLE3=Subterranean Homesick Blues
TTITLE4=Knockin' On Heaven's Door
TTITLE5=Things Have Changed
TTITLE6=Lay Lady Lay
TTITLE7=She Belongs To Me
TTITLE8=If Not For You
TTITLE9=Mr. Tambourine Man
TTITLE10=Bob Dylan - I Shall Be Released
EXTD=
EXTT0=
EXTT1=
EXTT2=
EXTT3=
EXTT4=
EXTT5=
EXTT6=
EXTT7=
EXTT8=
EXTT9=
EXTT10=
PLAYORDER=
